HIERARCHY
ROOT Hips
{
	OFFSET	0.00	0.00	0.00
	CHANNELS 6 Xposition Yposition Zposition Zrotation Xrotation Yrotation
	JOINT Chest
	{
		OFFSET	 0.000000	 4.570000	 0.000000
		CHANNELS 3 Zrotation Xrotation Yrotation
		JOINT Neck
		{
			OFFSET	 0.000000	 17.620001	 0.000000
			CHANNELS 3 Zrotation Xrotation Yrotation
			JOINT Head
			{
				OFFSET	 0.000000	 5.190000	 0.000000
				CHANNELS 3 Zrotation Xrotation Yrotation
				End Site 
				{
					OFFSET	 0.000000	 4.140008	 0.000000
				}
			}
		}
		JOINT LeftCollar
		{
			OFFSET	 1.060000	 15.330000	 01.760000
			CHANNELS 3 Zrotation Xrotation Yrotation
			JOINT LeftShoulder
			{
				OFFSET	 5.00000	 0.000000	 0.000000
				CHANNELS 3 Zrotation Xrotation Yrotation
				JOINT LeftElbow
				{
					OFFSET	 0.000000	-11.90000	 0.000000
					CHANNELS 3 Zrotation Xrotation Yrotation
					JOINT LeftWrist
					{
						OFFSET	 0.000000	-9.520000	 0.000000
						CHANNELS 3 Zrotation Xrotation Yrotation
						End Site 
						{
							OFFSET	 0.000000	-7.0	 0.000000
						}
					}
				}
			}
		}
		JOINT RightCollar
		{
			OFFSET	-1.060000	 15.330000	 01.760000
			CHANNELS 3 Zrotation Xrotation Yrotation
			JOINT RightShoulder
			{
				OFFSET	-5.000000	 0.000000	 0.000000
				CHANNELS 3 Zrotation Xrotation Yrotation
				JOINT RightElbow
				{
					OFFSET	 0.000000	-11.900000	 0.000000
					CHANNELS 3 Zrotation Xrotation Yrotation
					JOINT RightWrist
					{
						OFFSET	 0.000000	-9.520000	 0.000000
						CHANNELS 3 Zrotation Xrotation Yrotation
						End Site 
						{
							OFFSET	 0.000000	-7.0	 0.000000
						}
					}
				}
			}
		}
	}
	JOINT LeftHip
	{
		OFFSET	 3.430000	 0.000000	 0.000000
		CHANNELS 3 Zrotation Xrotation Yrotation
		JOINT LeftKnee
		{
			OFFSET	 0.000000	-19.0	 0.000000
			CHANNELS 3 Zrotation Xrotation Yrotation
			JOINT LeftAnkle
			{
				OFFSET	 0.000000	-15.00000	 0.000000
				CHANNELS 3 Zrotation Xrotation Yrotation
				End Site 
				{
					OFFSET	 0.000000	-3.0	 0.000000
				}
			}
		}
	}
	JOINT RightHip
	{
		OFFSET	-3.430000	 0.000000	 0.000000
		CHANNELS 3 Zrotation Xrotation Yrotation
		JOINT RightKnee
		{
			OFFSET	 0.000000	-19.0	 0.000000
			CHANNELS 3 Zrotation Xrotation Yrotation
			JOINT RightAnkle
			{
				OFFSET	 0.000000	-15.00000	 0.000000
				CHANNELS 3 Zrotation Xrotation Yrotation
				End Site 
				{
					OFFSET	 0.000000	-3.0	 0.000000
				}
			}
		}
	}
}
MOTION
Frames: 18
Frame Time: 0.033333333
0.000000	32.395808	0.000000	-5.118303	-1.458052	86.234114	0.798743	2.986505	6.520956	-4.750326	32.157199	1.521927	-357.959604	335.728896	-7.344301	12.231096	24.109223	11.900535	-5.111921	-0.458210	5.715601	-358.811738	317.701432	-20.138962	-187.642339	-197.556004	128.130493	341.072426	-335.782008	-8.035253	-13.934395	-29.126187	71.334869	327.901008	337.598838	-20.089367	-337.377349	-355.248374	-8.317204	5.284539	-18.853038	20.142321	-358.524297	-339.750539	-0.064121	-17.979014	-1.774756	2.386358	-350.322169	-346.145535	-0.347996	-5.542187	15.180599	0.278179	31.257076	-17.105547	1.504430	
0.142754	32.280940	-0.175606	-5.835371	-1.792830	85.251523	1.333074	1.750041	6.672880	-4.706538	32.528591	1.534280	-358.110278	335.816104	-7.043454	12.081673	24.109855	11.905512	-4.968924	-0.037309	5.811680	-359.054210	317.412788	-20.125324	-187.484835	-197.551195	128.068147	341.545403	-335.768675	-8.044468	-13.772414	-28.196902	71.625692	328.452040	337.510537	-20.784972	-337.410106	-354.686277	-8.445087	5.477579	-18.820106	20.249965	-358.518587	-340.064099	-0.059169	-16.367870	-1.305537	2.634435	-350.436615	-345.990026	-0.373551	-5.846560	16.946225	0.492420	33.103252	-16.910551	2.517902	
0.338749	32.196630	-0.401583	-6.372244	-1.695089	84.268549	1.506889	0.557056	6.764642	-4.729643	33.012619	1.578031	-358.295786	335.909814	-6.678481	11.821624	24.105356	11.975326	-4.654273	0.293993	6.016190	-359.495358	317.128270	-20.448696	-187.415099	-197.477170	128.049719	341.951390	-335.756108	-8.032316	-13.452147	-27.118949	72.037484	329.438866	337.602089	-21.186763	-337.247384	-354.113743	-8.554966	5.178201	-18.497825	20.086983	-358.400698	-339.612022	-0.083625	-14.256195	-1.021076	3.060052	-351.253178	-346.216487	-0.317630	-6.025687	19.751583	0.838818	35.091045	-16.509436	3.443123	
0.573116	32.157525	-0.666132	-6.582161	-1.205790	83.416784	1.316576	-0.389631	6.764061	-4.799440	33.566598	1.644251	-358.454410	335.965385	-6.312204	11.547231	24.108248	11.963419	-4.263039	0.399485	6.266717	359.965658	317.026828	-20.646980	-187.087906	-197.223824	127.930396	342.339973	-335.750862	-8.125987	-12.999719	-25.949824	72.543997	330.664366	337.926660	-21.033159	-336.976881	-353.624374	-8.636920	4.341548	-17.702250	19.642922	-358.256553	-338.821141	-0.121436	-12.131957	-1.108968	3.461272	-352.755109	-346.838554	-0.205738	-6.000364	23.646329	1.304665	37.037687	-15.804408	4.129307	
1.313454	32.492823	-2.589671	-3.050161	3.240854	79.172819	-1.660501	1.650096	6.098949	-5.079955	33.816201	1.766733	-359.404435	335.586145	-4.001552	13.889428	24.409173	7.930915	-4.431945	-6.661706	6.031323	-359.934430	317.341235	-20.170813	-185.283793	-192.969327	127.563765	344.359878	-335.800558	-9.696453	-12.341844	-19.234642	74.390525	332.741590	339.419193	-13.363937	-332.006061	-354.815641	-8.293832	-4.783077	-4.055802	16.504204	-359.101994	-336.210315	-0.012598	-8.852495	-9.291982	6.483640	355.244030	352.062036	-1.577259	-10.072171	67.473238	10.085285	-317.240886	354.042900	-7.162292	
1.114209	32.578123	-2.902909	-2.531231	4.237863	79.682706	-3.235988	2.428313	5.826998	-2.395422	34.099698	0.784217	359.513308	335.300206	-4.705071	17.905595	24.645364	2.784486	-5.051487	-9.975966	5.612430	-358.008699	317.126849	-17.205147	-185.821466	-191.343673	127.853624	347.368549	-336.006584	-13.189296	-13.263529	-18.348307	74.057581	334.206365	338.949440	-15.740169	-334.502276	-352.660252	-8.814653	-7.159826	-0.353031	16.246644	0.717683	20.764077	0.036016	-7.920506	-9.688586	5.929065	354.261439	346.513327	-2.294411	-11.686137	70.710604	11.979418	-316.979017	352.358521	-10.501474	
1.005235	32.628036	-2.941365	-2.391235	3.994314	79.720811	-3.308607	2.761414	5.825074	-1.375622	34.270545	0.406504	358.944135	335.173848	-5.141629	19.310133	24.681299	1.306656	-5.154309	-11.435820	5.530193	-357.449498	317.124035	-16.191924	-185.610263	-191.012382	127.852982	348.396383	-336.067346	-14.111883	-13.580291	-17.872868	73.980024	334.432089	339.110386	-16.841159	-335.495632	-352.674568	-8.885173	-7.280307	1.148039	16.375919	0.583126	20.144314	0.056780	-7.889729	-10.245231	5.783278	354.989209	344.233028	-2.054653	-11.794159	70.789110	12.086874	-317.606383	352.147687	-10.643900	
0.868340	32.684782	-2.950103	-2.330195	3.761825	79.966145	-3.486071	3.080110	5.806411	359.847769	-325.682043	-0.053364	358.471076	335.192398	-5.762393	-339.134346	-335.299195	-0.110770	-5.416482	-13.105339	5.355038	-356.752983	317.208948	-15.029402	-185.450026	-190.711157	127.857204	349.469324	-336.132314	-15.034081	-13.922656	-17.333792	73.901019	334.417309	339.057903	-17.607039	-336.150893	-352.990887	-8.884407	-7.386800	2.544956	16.493212	0.513714	19.604247	0.066598	-7.793001	-10.793236	5.514176	355.871670	342.162415	-1.667478	-10.872567	69.406905	11.065785	-318.252355	352.132879	-10.029099	
0.702166	32.744462	-2.929775	-2.352844	3.513970	80.353403	-3.710075	3.402462	5.782464	-358.861025	-325.794578	-0.536541	358.176695	335.262422	-6.463671	-337.529361	-335.294496	-1.424504	-5.733763	-14.911510	5.149059	-356.090236	317.297194	-13.819748	-185.316168	-190.313640	127.850264	350.525107	-336.196409	-15.893768	-14.261417	-16.793865	73.823456	334.176312	338.742539	-18.157707	-336.335390	-353.279176	-8.851789	-7.451892	3.896873	16.608516	0.522181	19.089333	0.066203	-7.865072	-11.270342	5.107494	356.911225	340.331515	-1.129251	-9.245710	66.459685	9.240499	-318.844286	352.071817	-8.888960	
0.511785	32.799083	-2.877327	-2.457560	3.161700	80.761766	-3.832297	3.758904	5.777469	-357.711422	-326.097210	-0.953889	358.074460	335.294742	-7.124602	-336.057619	-335.300780	-2.539679	-5.962915	-16.649185	4.995337	-355.703019	317.238564	-12.594629	-185.159374	-189.846605	127.805035	351.450051	-336.248318	-16.573276	-14.540484	-16.341243	73.760645	333.726995	338.187054	-18.604140	-336.042839	-353.243768	-8.834527	-7.349834	5.227941	16.737909	0.556598	18.575940	0.063265	-8.310157	-11.604951	4.620920	358.180711	338.895945	-0.401559	-7.412516	61.900036	7.124089	-319.078316	351.742383	-7.643376	
0.311657	32.831565	-2.810426	-2.645091	2.903699	81.266108	-3.959194	4.109076	5.772862	-356.865599	-326.552756	-1.240168	358.015584	335.268678	-7.753901	-334.942031	-335.311080	-3.388897	-6.071004	-18.069683	4.913975	-355.664087	316.824845	-11.617681	-185.119828	-189.399105	127.750680	352.149108	-336.284054	-17.038154	-14.718881	-16.032725	73.724404	333.215113	337.543104	-18.970657	-335.357143	-352.809560	-8.850830	-7.342737	6.418060	16.833638	0.698562	18.188160	0.050074	-9.222033	-11.794114	4.123002	-0.756132	-21.780631	0.234294	-5.329458	55.336268	4.774043	-318.895622	350.993740	-6.923477	
0.122017	32.844678	-2.745997	-2.877210	2.803583	81.843416	-4.133212	4.402956	5.760768	-356.297027	-327.013356	-1.414980	357.869036	335.217288	-8.321098	-334.212020	-335.320451	-3.963478	-6.132483	-19.187203	4.862765	-355.799926	316.183955	-11.016730	-185.137409	-188.974459	127.693716	352.615582	-336.308752	-17.348316	-14.735591	-15.818011	73.762161	332.819919	337.080126	-19.224006	-334.716771	-352.364860	-8.870336	-7.515349	7.515013	16.899445	0.925848	17.886419	0.030312	-10.143198	-11.978669	3.642466	-0.041514	-21.875611	0.659083	-3.685574	47.638318	2.928734	-318.493625	350.137043	-6.606836	
-0.047264	32.835272	-2.684288	-3.115753	2.881914	82.457996	-4.371951	4.653088	5.739815	-356.018956	-327.447374	-1.482081	357.721012	335.141882	-8.813162	-333.879800	-335.325396	-4.211198	-6.194457	-19.960216	4.816540	-356.180230	315.403128	-10.653579	-185.119268	-188.608702	127.597615	352.790490	-336.315008	-17.437384	-14.562646	-15.673124	73.895924	332.504446	336.861451	-19.365029	-334.192104	-352.018241	-8.879831	-7.872705	8.573614	16.949928	1.202078	17.685531	0.007276	-10.886595	-12.249153	3.187144	0.361406	-21.444946	0.877278	-2.594376	39.340505	1.678148	-317.994092	349.260894	-6.345003	
-0.188208	32.800261	-2.624549	-3.330216	3.141232	83.071463	-4.678582	4.862666	5.710191	-356.031032	-327.810931	-1.451427	357.662026	335.027490	-9.210870	-333.929633	-335.324604	-4.139366	-6.273212	-20.355831	4.767165	-356.819700	314.590336	-10.480209	-185.035024	-188.323801	127.460069	352.679540	-336.299763	-17.282950	-14.246169	-15.616997	74.094382	332.231293	336.885001	-19.200286	-333.728798	-351.923247	-8.852424	-8.392619	9.618638	16.998694	-358.494900	-342.366802	-0.018877	-11.509797	-12.598652	2.730046	0.547176	-20.623027	0.946406	-2.075641	31.208274	0.944600	-317.404018	348.563286	-5.883862	
-0.295393	32.740252	-2.566071	-3.509638	3.554986	83.645609	-5.038102	5.015814	5.673119	-356.294158	-328.060206	-1.344504	357.736639	334.864440	-9.492967	-334.301578	-335.319221	-3.828465	-6.361808	-20.365253	4.718606	-357.628012	313.854068	-10.480996	-184.898407	-188.122802	127.302305	352.345762	-336.265394	-16.912842	-13.884284	-15.679413	74.292874	331.971691	337.087749	-18.499621	-333.234976	-352.226289	-8.757982	-9.021292	10.623513	17.054640	-358.172706	-342.207631	-0.051403	-12.195920	-12.944891	2.227137	0.601894	-19.612997	0.929098	-2.044550	24.094952	0.543635	-316.741790	348.288903	-5.134558	
-0.366574	32.663137	-2.509158	-3.673682	4.054804	84.145285	-5.412285	5.068907	5.630002	-356.707439	-328.165391	-1.198689	357.894608	334.671638	-9.638933	-334.874030	-335.311845	-3.445764	-6.450481	-20.016957	4.675582	-358.356875	313.270962	-10.617112	-184.748662	-187.996157	127.159951	351.900024	-336.220369	-16.414805	-13.597222	-15.870704	74.418105	331.717417	337.357650	-17.142415	-332.673616	-353.012881	-8.570505	-9.667730	11.490785	17.115841	-357.826005	-341.775854	-0.096548	-13.141853	-13.160139	1.635798	0.568271	-18.689320	0.867068	-2.305467	18.851634	0.311156	-316.103004	348.564706	-4.186578	
-0.394078	32.587556	-2.454083	-3.880795	4.506672	84.580887	-5.720749	4.918486	5.581647	-357.055669	-328.103154	-1.085405	357.990914	334.513751	-9.713085	-335.415500	-335.305342	-3.189593	-6.620538	-19.426143	4.591456	-358.694150	312.981963	-10.698861	-184.668352	-187.977196	127.060202	351.529691	-336.185808	-16.017208	-13.516028	-16.077170	74.419137	331.453635	337.527749	-15.664900	-332.269378	-353.970883	-8.349294	-10.171693	12.058164	17.164770	-357.462394	-341.035215	-0.160289	-14.188088	-13.237199	0.989480	0.454316	-18.147387	0.781014	-2.520409	16.198177	0.189578	-316.087977	349.123252	-3.462158	
-0.371584	32.514820	-2.378598	-4.131051	4.836752	85.084969	-5.909537	4.571263	5.532573	-357.268853	-327.897429	-1.024404	357.979029	334.408703	-9.825238	-335.923611	-335.299468	-3.000207	-6.957119	-18.604176	4.418354	-358.607871	313.026659	-10.915490	-184.812701	-188.085072	127.037895	351.377788	-336.175645	-15.888927	-13.724868	-16.236805	74.261134	331.207502	337.491140	-14.596679	-332.038381	-354.668655	-8.181599	-10.420810	12.464785	17.204858	-357.065423	-339.854139	-0.257153	-15.345094	-13.195502	0.268513	0.393809	-17.699537	0.729291	-2.685486	15.045984	0.135724	-317.213456	349.981916	-3.220609	
